<svg width="18" height="18" viewBox="0 0 18 18" fill="none" xmlns="http://www.w3.org/2000/svg">
<path fill-rule="evenodd" clip-rule="evenodd" d="M3 1.5C3 1.08579 3.33579 0.75 3.75 0.75H14.25C14.6642 0.75 15 1.08579 15 1.5C15 1.91421 14.6642 2.25 14.25 2.25H13.5V4.629C13.4999 5.22565 13.2628 5.79798 12.8408 6.21983C12.8408 6.21986 12.8409 6.2198 12.8408 6.21983L10.0607 9L12.8407 11.7801C12.8407 11.7801 12.8408 11.7801 12.8407 11.7801C13.2627 12.2019 13.4999 12.7742 13.5 13.3708V15.75H14.25C14.6642 15.75 15 16.0858 15 16.5C15 16.9142 14.6642 17.25 14.25 17.25H3.75C3.33579 17.25 3 16.9142 3 16.5C3 16.0858 3.33579 15.75 3.75 15.75H4.5V13.371C4.50013 12.7743 4.73723 12.202 5.15917 11.7802C5.15914 11.7802 5.1592 11.7801 5.15917 11.7802L7.93934 9L5.15925 6.21991C5.15922 6.21988 5.15928 6.21994 5.15925 6.21991C4.73731 5.79806 4.50013 5.22581 4.5 4.62916V2.25H3.75C3.33579 2.25 3 1.91421 3 1.5ZM6 2.25V4.62884C6 4.62879 6 4.62889 6 4.62884C6.00008 4.82768 6.07913 5.01851 6.21975 5.15909L9 7.93934L11.7802 5.15917C11.9208 5.01859 11.9999 4.82784 12 4.629C12 4.62895 12 4.62905 12 4.629V2.25H6ZM9 10.0607L6.21983 12.8408C6.07921 12.9814 6.00008 13.1722 6 13.371C6 13.3709 6 13.3711 6 13.371V15.75H12V13.3712C12 13.3711 12 13.3712 12 13.3712C11.9999 13.1723 11.9209 12.9815 11.7802 12.8409L9 10.0607Z" fill="#A3A3A3"/>
</svg>
