<svg width="16" height="16" viewBox="0 0 16 16" fill="none" xmlns="http://www.w3.org/2000/svg">
<path d="M7.8877 1.75C11.2473 1.75 13.9715 4.47342 13.9717 7.83301C13.9717 9.24253 13.4903 10.5387 12.6855 11.5703L15.085 13.9697L15.1367 14.0264C15.3768 14.3209 15.3595 14.7557 15.085 15.0303C14.8104 15.3048 14.3756 15.3221 14.0811 15.082L14.0244 15.0303L11.625 12.6309C10.5934 13.4356 9.29722 13.917 7.8877 13.917C4.52811 13.9168 1.80469 11.1926 1.80469 7.83301C1.80486 4.47353 4.52822 1.75018 7.8877 1.75ZM7.8877 3.25C5.35665 3.25018 3.30486 5.30196 3.30469 7.83301C3.30469 10.3642 5.35654 12.4168 7.8877 12.417C10.419 12.417 12.4717 10.3643 12.4717 7.83301C12.4715 5.30185 10.4189 3.25 7.8877 3.25ZM0.564453 0.509766H0.554688V0.5H0.564453V0.509766Z" fill="currentColor"/>
</svg>
